<svg xmlns="http://www.w3.org/2000/svg" xmlns:xlink="http://www.w3.org/1999/xlink" width="500" zoomAndPan="magnify" viewBox="0 0 375 374.999991" height="500" preserveAspectRatio="xMidYMid meet" version="1.0"><defs><g/><clipPath id="ae359a15a7"><path d="M 254.710938 167.574219 L 294.460938 167.574219 L 294.460938 210 L 254.710938 210 Z M 254.710938 167.574219 " clip-rule="nonzero"/></clipPath><clipPath id="046e8f132e"><path d="M 265 209 L 284 209 L 284 211.824219 L 265 211.824219 Z M 265 209 " clip-rule="nonzero"/></clipPath></defs><path fill="#56b22e" d="M 270.449219 190.929688 C 273.078125 190.683594 275.707031 190.683594 278.332031 190.929688 L 278.332031 189.613281 L 270.449219 189.613281 Z M 270.449219 190.929688 " fill-opacity="1" fill-rule="nonzero"/><g clip-path="url(#ae359a15a7)"><path fill="#56b22e" d="M 282.648438 167.574219 L 282.648438 183.199219 L 266.578125 183.199219 L 266.578125 167.574219 L 254.773438 167.574219 L 254.773438 209.234375 L 266.578125 209.234375 L 266.578125 193.117188 L 264.246094 193.117188 C 264.078125 193.113281 263.929688 193.050781 263.808594 192.933594 C 263.683594 192.816406 263.617188 192.671875 263.605469 192.503906 C 263.601562 192.328125 263.667969 192.179688 263.792969 192.058594 C 263.921875 191.9375 264.070312 191.882812 264.246094 191.890625 C 265.886719 191.546875 267.570312 191.277344 269.207031 191.050781 L 269.207031 188.945312 C 269.195312 188.773438 269.25 188.625 269.371094 188.5 C 269.496094 188.378906 269.644531 188.324219 269.816406 188.335938 L 279 188.335938 C 279.175781 188.320312 279.324219 188.375 279.449219 188.5 C 279.570312 188.621094 279.628906 188.773438 279.613281 188.945312 L 279.613281 191.082031 C 281.25 191.25 282.871094 191.511719 284.472656 191.871094 C 284.648438 191.863281 284.796875 191.917969 284.917969 192.039062 C 285.042969 192.164062 285.097656 192.3125 285.085938 192.484375 C 285.085938 192.652344 285.027344 192.796875 284.90625 192.917969 C 284.789062 193.039062 284.644531 193.097656 284.472656 193.097656 L 282.648438 193.097656 L 282.648438 209.234375 L 294.398438 209.234375 L 294.398438 167.574219 Z M 282.648438 167.574219 " fill-opacity="1" fill-rule="nonzero"/></g><g clip-path="url(#046e8f132e)"><path fill="#56b22e" d="M 282.40625 209.535156 C 277.410156 211.445312 272.292969 211.445312 266.761719 209.535156 C 266.601562 209.476562 266.441406 209.484375 266.289062 209.558594 C 266.132812 209.632812 266.027344 209.753906 265.972656 209.914062 C 265.914062 210.078125 265.921875 210.234375 265.996094 210.390625 C 266.070312 210.546875 266.191406 210.648438 266.351562 210.707031 C 269.082031 211.671875 271.898438 212.167969 274.796875 212.1875 C 277.574219 212.1875 280.257812 211.691406 282.851562 210.691406 C 283.011719 210.632812 283.125 210.523438 283.195312 210.367188 C 283.265625 210.207031 283.269531 210.050781 283.207031 209.890625 C 283.144531 209.730469 283.035156 209.617188 282.878906 209.546875 C 282.722656 209.476562 282.566406 209.472656 282.40625 209.535156 Z M 282.40625 209.535156 " fill-opacity="1" fill-rule="nonzero"/></g><path fill="#56b22e" d="M 270.75 197.351562 L 270.75 203.132812 C 270.75 203.300781 270.808594 203.445312 270.925781 203.566406 C 271.046875 203.683594 271.191406 203.742188 271.359375 203.742188 C 271.53125 203.742188 271.675781 203.683594 271.792969 203.566406 C 271.914062 203.445312 271.972656 203.300781 271.972656 203.132812 L 271.972656 197.351562 C 271.972656 197.183594 271.914062 197.039062 271.792969 196.917969 C 271.675781 196.800781 271.53125 196.738281 271.359375 196.738281 C 271.191406 196.738281 271.046875 196.800781 270.925781 196.917969 C 270.808594 197.039062 270.75 197.183594 270.75 197.351562 Z M 270.75 197.351562 " fill-opacity="1" fill-rule="nonzero"/><path fill="#56b22e" d="M 277.753906 196.734375 C 277.582031 196.734375 277.4375 196.792969 277.320312 196.914062 C 277.199219 197.03125 277.140625 197.175781 277.140625 197.347656 L 277.140625 203.125 C 277.140625 203.292969 277.199219 203.4375 277.320312 203.558594 C 277.4375 203.679688 277.582031 203.738281 277.753906 203.738281 C 277.921875 203.738281 278.066406 203.679688 278.183594 203.558594 C 278.304688 203.4375 278.363281 203.292969 278.363281 203.125 L 278.363281 197.351562 C 278.367188 197.183594 278.308594 197.035156 278.1875 196.914062 C 278.066406 196.792969 277.921875 196.734375 277.753906 196.734375 Z M 277.753906 196.734375 " fill-opacity="1" fill-rule="nonzero"/><g fill="#000000" fill-opacity="1"><g transform="translate(83.864041, 207.86253)"><g><path d="M 12.875 -31.90625 L 0.234375 -31.90625 L 0.234375 -41.140625 L 37.078125 -41.140625 L 37.078125 -31.90625 L 24.5 -31.90625 L 24.5 0 L 12.875 0 Z M 12.875 -31.90625 "/></g></g></g><g fill="#000000" fill-opacity="1"><g transform="translate(121.175303, 207.86253)"><g><path d="M 22.09375 -10.9375 L 15.75 -10.9375 L 15.75 0 L 4.109375 0 L 4.109375 -41.140625 L 22.921875 -41.140625 C 26.640625 -41.140625 29.867188 -40.519531 32.609375 -39.28125 C 35.359375 -38.050781 37.472656 -36.289062 38.953125 -34 C 40.441406 -31.707031 41.1875 -29.015625 41.1875 -25.921875 C 41.1875 -22.941406 40.488281 -20.34375 39.09375 -18.125 C 37.707031 -15.914062 35.722656 -14.179688 33.140625 -12.921875 L 42.015625 0 L 29.5625 0 Z M 29.4375 -25.921875 C 29.4375 -27.835938 28.828125 -29.320312 27.609375 -30.375 C 26.398438 -31.4375 24.601562 -31.96875 22.21875 -31.96875 L 15.75 -31.96875 L 15.75 -19.921875 L 22.21875 -19.921875 C 24.601562 -19.921875 26.398438 -20.4375 27.609375 -21.46875 C 28.828125 -22.507812 29.4375 -23.992188 29.4375 -25.921875 Z M 29.4375 -25.921875 "/></g></g></g><g fill="#000000" fill-opacity="1"><g transform="translate(164.656143, 207.86253)"><g><path d="M 31.671875 -7.984375 L 14.28125 -7.984375 L 11.046875 0 L -0.828125 0 L 17.328125 -41.140625 L 28.796875 -41.140625 L 47.015625 0 L 34.90625 0 Z M 28.265625 -16.578125 L 22.984375 -29.734375 L 17.6875 -16.578125 Z M 28.265625 -16.578125 "/></g></g></g><g fill="#000000" fill-opacity="1"><g transform="translate(210.839848, 207.86253)"><g><path d="M 18.5625 0.828125 C 15.238281 0.828125 12.007812 0.414062 8.875 -0.40625 C 5.738281 -1.226562 3.191406 -2.328125 1.234375 -3.703125 L 5.046875 -12.28125 C 6.890625 -11.0625 9.023438 -10.082031 11.453125 -9.34375 C 13.890625 -8.601562 16.28125 -8.234375 18.625 -8.234375 C 23.09375 -8.234375 25.328125 -9.347656 25.328125 -11.578125 C 25.328125 -12.753906 24.691406 -13.625 23.421875 -14.1875 C 22.148438 -14.757812 20.101562 -15.359375 17.28125 -15.984375 C 14.1875 -16.648438 11.597656 -17.363281 9.515625 -18.125 C 7.441406 -18.894531 5.660156 -20.117188 4.171875 -21.796875 C 2.679688 -23.484375 1.9375 -25.757812 1.9375 -28.625 C 1.9375 -31.125 2.617188 -33.382812 3.984375 -35.40625 C 5.359375 -37.425781 7.40625 -39.019531 10.125 -40.1875 C 12.851562 -41.363281 16.195312 -41.953125 20.15625 -41.953125 C 22.863281 -41.953125 25.53125 -41.648438 28.15625 -41.046875 C 30.78125 -40.441406 33.085938 -39.550781 35.078125 -38.375 L 31.5 -29.734375 C 27.582031 -31.847656 23.78125 -32.90625 20.09375 -32.90625 C 17.78125 -32.90625 16.09375 -32.5625 15.03125 -31.875 C 13.976562 -31.195312 13.453125 -30.304688 13.453125 -29.203125 C 13.453125 -28.109375 14.078125 -27.285156 15.328125 -26.734375 C 16.585938 -26.191406 18.609375 -25.625 21.390625 -25.03125 C 24.523438 -24.363281 27.117188 -23.648438 29.171875 -22.890625 C 31.234375 -22.128906 33.015625 -20.914062 34.515625 -19.25 C 36.023438 -17.582031 36.78125 -15.316406 36.78125 -12.453125 C 36.78125 -9.984375 36.09375 -7.75 34.71875 -5.75 C 33.351562 -3.757812 31.300781 -2.164062 28.5625 -0.96875 C 25.820312 0.226562 22.488281 0.828125 18.5625 0.828125 Z M 18.5625 0.828125 "/></g></g></g></svg>