<svg xmlns="http://www.w3.org/2000/svg" xmlns:xlink="http://www.w3.org/1999/xlink" width="500" zoomAndPan="magnify" viewBox="0 0 375 374.999991" height="500" preserveAspectRatio="xMidYMid meet" version="1.0"><defs><g/><clipPath id="7c5df734cb"><path d="M 297.742188 165.9375 L 337.492188 165.9375 L 337.492188 208 L 297.742188 208 Z M 297.742188 165.9375 " clip-rule="nonzero"/></clipPath><clipPath id="28b935f6c8"><path d="M 308 207 L 327 207 L 327 210.1875 L 308 210.1875 Z M 308 207 " clip-rule="nonzero"/></clipPath><clipPath id="4be8fb75ef"><path d="M 74.652344 136.695312 L 162.558594 136.695312 L 162.558594 240.199219 L 74.652344 240.199219 Z M 74.652344 136.695312 " clip-rule="nonzero"/></clipPath></defs><path fill="#38b6ff" d="M 313.480469 189.292969 C 316.109375 189.050781 318.738281 189.050781 321.367188 189.292969 L 321.367188 187.976562 L 313.480469 187.976562 Z M 313.480469 189.292969 " fill-opacity="1" fill-rule="nonzero"/><g clip-path="url(#7c5df734cb)"><path fill="#38b6ff" d="M 325.683594 165.9375 L 325.683594 181.5625 L 309.609375 181.5625 L 309.609375 165.9375 L 297.808594 165.9375 L 297.808594 207.601562 L 309.609375 207.601562 L 309.609375 191.480469 L 307.277344 191.480469 C 307.109375 191.476562 306.960938 191.414062 306.839844 191.296875 C 306.714844 191.179688 306.648438 191.039062 306.636719 190.867188 C 306.636719 190.691406 306.699219 190.542969 306.824219 190.425781 C 306.953125 190.304688 307.101562 190.246094 307.277344 190.253906 C 308.917969 189.914062 310.601562 189.644531 312.238281 189.417969 L 312.238281 187.3125 C 312.226562 187.136719 312.28125 186.988281 312.40625 186.867188 C 312.527344 186.742188 312.675781 186.6875 312.847656 186.699219 L 322.03125 186.699219 C 322.207031 186.683594 322.355469 186.738281 322.480469 186.863281 C 322.605469 186.988281 322.660156 187.136719 322.644531 187.3125 L 322.644531 189.449219 C 324.28125 189.613281 325.902344 189.878906 327.507812 190.238281 C 327.679688 190.226562 327.828125 190.28125 327.953125 190.40625 C 328.074219 190.527344 328.128906 190.675781 328.117188 190.847656 C 328.117188 191.019531 328.058594 191.164062 327.9375 191.28125 C 327.820312 191.402344 327.675781 191.460938 327.507812 191.460938 L 325.683594 191.460938 L 325.683594 207.601562 L 337.429688 207.601562 L 337.429688 165.9375 Z M 325.683594 165.9375 " fill-opacity="1" fill-rule="nonzero"/></g><g clip-path="url(#28b935f6c8)"><path fill="#38b6ff" d="M 325.4375 207.898438 C 320.441406 209.808594 315.324219 209.808594 309.792969 207.898438 C 309.632812 207.839844 309.476562 207.847656 309.320312 207.921875 C 309.164062 208 309.058594 208.117188 309.003906 208.28125 C 308.945312 208.441406 308.953125 208.601562 309.027344 208.753906 C 309.101562 208.910156 309.222656 209.015625 309.382812 209.070312 C 312.117188 210.039062 314.929688 210.53125 317.828125 210.550781 C 320.605469 210.554688 323.289062 210.054688 325.882812 209.058594 C 326.042969 208.996094 326.160156 208.886719 326.226562 208.730469 C 326.296875 208.574219 326.300781 208.414062 326.238281 208.253906 C 326.175781 208.09375 326.066406 207.980469 325.910156 207.910156 C 325.753906 207.84375 325.597656 207.839844 325.4375 207.898438 Z M 325.4375 207.898438 " fill-opacity="1" fill-rule="nonzero"/></g><path fill="#38b6ff" d="M 313.78125 195.71875 L 313.78125 201.496094 C 313.78125 201.664062 313.839844 201.808594 313.960938 201.929688 C 314.078125 202.046875 314.222656 202.109375 314.390625 202.109375 C 314.5625 202.109375 314.707031 202.046875 314.824219 201.929688 C 314.945312 201.808594 315.003906 201.664062 315.003906 201.496094 L 315.003906 195.71875 C 315.003906 195.546875 314.945312 195.402344 314.824219 195.285156 C 314.707031 195.164062 314.5625 195.105469 314.390625 195.105469 C 314.222656 195.105469 314.078125 195.164062 313.960938 195.285156 C 313.839844 195.402344 313.78125 195.546875 313.78125 195.71875 Z M 313.78125 195.71875 " fill-opacity="1" fill-rule="nonzero"/><path fill="#38b6ff" d="M 320.785156 195.097656 C 320.613281 195.097656 320.472656 195.160156 320.351562 195.277344 C 320.230469 195.398438 320.171875 195.542969 320.171875 195.710938 L 320.171875 201.488281 C 320.171875 201.660156 320.230469 201.804688 320.351562 201.921875 C 320.472656 202.042969 320.613281 202.101562 320.785156 202.101562 C 320.953125 202.101562 321.097656 202.042969 321.21875 201.921875 C 321.335938 201.804688 321.394531 201.660156 321.394531 201.488281 L 321.394531 195.71875 C 321.398438 195.546875 321.339844 195.402344 321.21875 195.28125 C 321.097656 195.160156 320.953125 195.097656 320.785156 195.097656 Z M 320.785156 195.097656 " fill-opacity="1" fill-rule="nonzero"/><g clip-path="url(#4be8fb75ef)"><path fill="#ffffff" d="M 162.558594 136.695312 L 74.652344 136.695312 L 74.652344 240.199219 L 162.558594 240.199219 Z M 162.558594 136.695312 " fill-opacity="1" fill-rule="nonzero"/></g><path fill="#000000" d="M 94.488281 199.890625 L 94.488281 208.8125 L 127.296875 208.8125 L 127.296875 167.96875 L 95.253906 167.96875 L 95.253906 176.90625 L 115.855469 176.90625 L 115.855469 183.78125 L 97.691406 183.78125 L 97.691406 192.421875 L 115.855469 192.421875 L 115.855469 199.890625 Z M 94.488281 199.890625 " fill-opacity="1" fill-rule="nonzero"/><path fill="#000000" d="M 94.488281 199.890625 L 94.488281 208.8125 L 127.296875 208.8125 L 127.296875 167.96875 L 95.253906 167.96875 L 95.253906 176.90625 L 115.855469 176.90625 L 115.855469 183.78125 L 97.691406 183.78125 L 97.691406 192.421875 L 115.855469 192.421875 L 115.855469 199.890625 Z M 94.488281 199.890625 " fill-opacity="1" fill-rule="nonzero"/><g fill="#000000" fill-opacity="1"><g transform="translate(51.90864, 208.550274)"><g><path d="M 22.09375 -10.9375 L 15.75 -10.9375 L 15.75 0 L 4.109375 0 L 4.109375 -41.140625 L 22.921875 -41.140625 C 26.640625 -41.140625 29.867188 -40.519531 32.609375 -39.28125 C 35.359375 -38.050781 37.472656 -36.289062 38.953125 -34 C 40.441406 -31.707031 41.1875 -29.015625 41.1875 -25.921875 C 41.1875 -22.941406 40.488281 -20.34375 39.09375 -18.125 C 37.707031 -15.914062 35.722656 -14.179688 33.140625 -12.921875 L 42.015625 0 L 29.5625 0 Z M 29.4375 -25.921875 C 29.4375 -27.835938 28.828125 -29.320312 27.609375 -30.375 C 26.398438 -31.4375 24.601562 -31.96875 22.21875 -31.96875 L 15.75 -31.96875 L 15.75 -19.921875 L 22.21875 -19.921875 C 24.601562 -19.921875 26.398438 -20.4375 27.609375 -21.46875 C 28.828125 -22.507812 29.4375 -23.992188 29.4375 -25.921875 Z M 29.4375 -25.921875 "/></g></g></g><g fill="#000000" fill-opacity="1"><g transform="translate(95.396918, 208.550274)"><g/></g></g><g fill="#000000" fill-opacity="1"><g transform="translate(112.495466, 208.550274)"><g/></g></g><g fill="#000000" fill-opacity="1"><g transform="translate(129.603947, 208.550274)"><g><path d="M 12.875 -31.90625 L 0.234375 -31.90625 L 0.234375 -41.140625 L 37.078125 -41.140625 L 37.078125 -31.90625 L 24.5 -31.90625 L 24.5 0 L 12.875 0 Z M 12.875 -31.90625 "/></g></g></g><g fill="#000000" fill-opacity="1"><g transform="translate(166.915209, 208.550274)"><g><path d="M 22.09375 -10.9375 L 15.75 -10.9375 L 15.75 0 L 4.109375 0 L 4.109375 -41.140625 L 22.921875 -41.140625 C 26.640625 -41.140625 29.867188 -40.519531 32.609375 -39.28125 C 35.359375 -38.050781 37.472656 -36.289062 38.953125 -34 C 40.441406 -31.707031 41.1875 -29.015625 41.1875 -25.921875 C 41.1875 -22.941406 40.488281 -20.34375 39.09375 -18.125 C 37.707031 -15.914062 35.722656 -14.179688 33.140625 -12.921875 L 42.015625 0 L 29.5625 0 Z M 29.4375 -25.921875 C 29.4375 -27.835938 28.828125 -29.320312 27.609375 -30.375 C 26.398438 -31.4375 24.601562 -31.96875 22.21875 -31.96875 L 15.75 -31.96875 L 15.75 -19.921875 L 22.21875 -19.921875 C 24.601562 -19.921875 26.398438 -20.4375 27.609375 -21.46875 C 28.828125 -22.507812 29.4375 -23.992188 29.4375 -25.921875 Z M 29.4375 -25.921875 "/></g></g></g><g fill="#000000" fill-opacity="1"><g transform="translate(210.396049, 208.550274)"><g><path d="M 31.671875 -7.984375 L 14.28125 -7.984375 L 11.046875 0 L -0.828125 0 L 17.328125 -41.140625 L 28.796875 -41.140625 L 47.015625 0 L 34.90625 0 Z M 28.265625 -16.578125 L 22.984375 -29.734375 L 17.6875 -16.578125 Z M 28.265625 -16.578125 "/></g></g></g><g fill="#000000" fill-opacity="1"><g transform="translate(256.579754, 208.550274)"><g><path d="M 18.5625 0.828125 C 15.238281 0.828125 12.007812 0.414062 8.875 -0.40625 C 5.738281 -1.226562 3.191406 -2.328125 1.234375 -3.703125 L 5.046875 -12.28125 C 6.890625 -11.0625 9.023438 -10.082031 11.453125 -9.34375 C 13.890625 -8.601562 16.28125 -8.234375 18.625 -8.234375 C 23.09375 -8.234375 25.328125 -9.347656 25.328125 -11.578125 C 25.328125 -12.753906 24.691406 -13.625 23.421875 -14.1875 C 22.148438 -14.757812 20.101562 -15.359375 17.28125 -15.984375 C 14.1875 -16.648438 11.597656 -17.363281 9.515625 -18.125 C 7.441406 -18.894531 5.660156 -20.117188 4.171875 -21.796875 C 2.679688 -23.484375 1.9375 -25.757812 1.9375 -28.625 C 1.9375 -31.125 2.617188 -33.382812 3.984375 -35.40625 C 5.359375 -37.425781 7.40625 -39.019531 10.125 -40.1875 C 12.851562 -41.363281 16.195312 -41.953125 20.15625 -41.953125 C 22.863281 -41.953125 25.53125 -41.648438 28.15625 -41.046875 C 30.78125 -40.441406 33.085938 -39.550781 35.078125 -38.375 L 31.5 -29.734375 C 27.582031 -31.847656 23.78125 -32.90625 20.09375 -32.90625 C 17.78125 -32.90625 16.09375 -32.5625 15.03125 -31.875 C 13.976562 -31.195312 13.453125 -30.304688 13.453125 -29.203125 C 13.453125 -28.109375 14.078125 -27.285156 15.328125 -26.734375 C 16.585938 -26.191406 18.609375 -25.625 21.390625 -25.03125 C 24.523438 -24.363281 27.117188 -23.648438 29.171875 -22.890625 C 31.234375 -22.128906 33.015625 -20.914062 34.515625 -19.25 C 36.023438 -17.582031 36.78125 -15.316406 36.78125 -12.453125 C 36.78125 -9.984375 36.09375 -7.75 34.71875 -5.75 C 33.351562 -3.757812 31.300781 -2.164062 28.5625 -0.96875 C 25.820312 0.226562 22.488281 0.828125 18.5625 0.828125 Z M 18.5625 0.828125 "/></g></g></g></svg>